Coordinates
version=1
nRows=30
nColumns=38
inDegrees=no

Units are S.I. units (second, meters, Newtons, ...)
If the header above contains a line with 'inDegrees', this indicates whether rotational values are in degrees (yes) or radians (no).

endheader
time	pelvis_tilt	pelvis_list	pelvis_rotation	pelvis_tx	pelvis_ty	pelvis_tz	hip_flexion_r	hip_adduction_r	hip_rotation_r	knee_angle_r	ankle_angle_r	subtalar_angle_r	mtp_angle_r	hip_flexion_l	hip_adduction_l	hip_rotation_l	knee_angle_l	ankle_angle_l	subtalar_angle_l	mtp_angle_l	lumbar_extension	lumbar_bending	lumbar_rotation	arm_flex_r	arm_add_r	arm_rot_r	elbow_flex_r	pro_sup_r	wrist_flex_r	wrist_dev_r	arm_flex_l	arm_add_l	arm_rot_l	elbow_flex_l	pro_sup_l	wrist_flex_l	wrist_dev_l
10	0.809969	1.517	0.735327	0.737355	-0.219052	1.03611	0.0641508	-0.00651262	-0.0582804	0.228312	-0.242245	0	0	-0.109021	-0.075244	-0.190052	0	-0.395763	0	0	-0.262816	0.10235	0.0367955	0.15178	-0.479231	0.841317	0.692052	0.595749	0	0	0.155468	-0.255403	0.653604	0.494653	0.962301	0	0
10.01	0.859154	1.51954	0.684493	0.73749	-0.218142	1.03619	0.0583342	-0.00668083	-0.0577453	0.226322	-0.241397	0	0	-0.114926	-0.0747296	-0.192689	0	-0.394972	0	0	-0.263935	0.101759	0.0367056	0.151147	-0.47784	0.84189	0.689892	0.595033	0	0	0.153675	-0.254997	0.649365	0.494339	0.967339	0	0
10.02	0.915853	1.52169	0.626019	0.737636	-0.217287	1.03625	0.0531727	-0.00655363	-0.0572941	0.225834	-0.24048	0	0	-0.120589	-0.0745433	-0.195852	0	-0.394231	0	0	-0.265299	0.101497	0.0368458	0.150599	-0.476801	0.842889	0.688078	0.594692	0	0	0.151925	-0.254496	0.6449	0.494055	0.972928	0	0
10.03	0.982093	1.52418	0.558628	0.737667	-0.216651	1.03641	0.0479649	-0.00709778	-0.0571073	0.225602	-0.239623	0	0	-0.126069	-0.0739339	-0.197765	0	-0.393473	0	0	-0.267902	0.101055	0.0365435	0.150666	-0.476005	0.844049	0.686508	0.594537	0	0	0.150772	-0.254099	0.640267	0.49421	0.979038	0	0
10.04	1.03258	1.52595	0.506719	0.737746	-0.216107	1.03651	0.0443611	-0.0074354	-0.0562326	0.225934	-0.239198	0	0	-0.130047	-0.0732792	-0.199027	0	-0.392949	0	0	-0.269791	0.100469	0.0365891	0.150573	-0.475365	0.844711	0.685371	0.594501	0	0	0.149817	-0.253888	0.636501	0.494445	0.983948	0	0
10.05	1.10052	1.52777	0.436964	0.73784	-0.215593	1.03666	0.0402739	-0.0078142	-0.0551183	0.225983	-0.239333	0	0	-0.134632	-0.0728099	-0.20115	0	-0.392682	0	0	-0.272701	0.0999598	0.0368998	0.150747	-0.475123	0.845545	0.684792	0.595072	0	0	0.148575	-0.253382	0.630252	0.49477	0.991033	0	0
10.06	1.38524	1.52685	0.153837	0.737911	-0.214675	1.03784	0.0236244	-0.0021035	-0.0596546	0.219414	-0.239783	0	0	-0.148339	-0.0786513	-0.203638	0	-0.392722	0	0	-0.284622	0.10483	0.0351127	0.152172	-0.474616	0.846285	0.683688	0.598109	0	0	0.147075	-0.251759	0.616892	0.495007	1.00498	0	0
10.07	1.03218	1.5274	0.503031	0.738006	-0.21466	1.03622	0.0453095	-0.00931405	-0.0516653	0.232095	-0.234455	0	0	-0.131497	-0.0718762	-0.198399	0	-0.389135	0	0	-0.269588	0.0981104	0.0340696	0.150691	-0.471328	0.844514	0.680165	0.60549	0	0	0.140479	-0.249814	0.594098	0.495657	1.02729	0	0
10.08	1.01711	1.52703	0.517362	0.738114	-0.213985	1.03608	0.0460324	-0.00935682	-0.0506404	0.232869	-0.233959	0	0	-0.130942	-0.0719821	-0.197292	0	-0.388224	0	0	-0.268863	0.0977182	0.0329322	0.149406	-0.469538	0.841504	0.678587	0.612823	0	0	0.136344	-0.248054	0.576817	0.496669	1.04521	0	0
10.09	1.02847	1.52731	0.505299	0.738268	-0.213379	1.03603	0.0458409	-0.00927593	-0.0490711	0.234755	-0.23319	0	0	-0.131766	-0.072104	-0.19669	2.90963e-05	-0.387385	0	0	-0.267535	0.0974335	0.0343336	0.148522	-0.470013	0.846366	0.677299	0.60584	0	0	0.138566	-0.250221	0.594613	0.495394	1.02691	0	0
10.1	1.05231	1.52832	0.482333	0.738267	-0.21304	1.03609	0.0458225	-0.00985356	-0.0484617	0.238737	-0.231822	0	0	-0.132014	-0.071997	-0.194537	0.00296624	-0.385917	0	0	-0.26789	0.0970081	0.03432	0.148231	-0.47045	0.850284	0.676442	0.600434	0	0	0.141387	-0.252426	0.610337	0.494395	1.01188	0	0
10.11	1.07732	1.52914	0.457846	0.738288	-0.212726	1.03613	0.0461758	-0.0101901	-0.0464118	0.243077	-0.230251	0	0	-0.132178	-0.0720358	-0.193326	0.00606698	-0.384098	0	0	-0.26853	0.0967334	0.0344745	0.147963	-0.471154	0.853649	0.67613	0.596228	0	0	0.14381	-0.254353	0.623882	0.493507	0.99906	0	0
10.12	1.09679	1.52955	0.438135	0.738374	-0.212418	1.03612	0.0472559	-0.0101506	-0.0426684	0.247997	-0.228484	0	0	-0.132136	-0.0723022	-0.193254	0.00895759	-0.382185	0	0	-0.269005	0.0965554	0.0353125	0.147648	-0.47217	0.856851	0.676261	0.593146	0	0	0.145794	-0.256012	0.635784	0.493052	0.987902	0	0
10.13	1.11502	1.52975	0.419506	0.738473	-0.212171	1.03612	0.0486095	-0.00994676	-0.0394766	0.252918	-0.226642	0	0	-0.131777	-0.0727928	-0.193625	0.0121434	-0.380324	0	0	-0.269691	0.0965169	0.0363126	0.147471	-0.473381	0.859887	0.676706	0.590859	0	0	0.147681	-0.257452	0.646432	0.492877	0.978076	0	0
10.14	1.13823	1.53019	0.396164	0.738538	-0.212016	1.03613	0.050393	-0.00979584	-0.0355182	0.259212	-0.225049	0	0	-0.131565	-0.0731333	-0.193626	0.0152584	-0.378753	0	0	-0.271142	0.0963158	0.0369659	0.147479	-0.474722	0.86228	0.677623	0.58955	0	0	0.149205	-0.258657	0.653499	0.492656	0.97136	0	0
10.15	1.33563	1.5295	0.200056	0.738642	-0.211644	1.03693	0.0425485	-0.00570679	-0.0353438	0.260287	-0.224351	0	0	-0.13914	-0.0773315	-0.195524	0.016902	-0.377655	0	0	-0.279885	0.0994413	0.0375623	0.148423	-0.47678	0.865187	0.679128	0.587838	0	0	0.152194	-0.25986	0.662544	0.492131	0.963286	0	0
10.16	1.16405	1.53108	0.371094	0.738742	-0.211649	1.03611	0.0549237	-0.0101431	-0.0325542	0.271249	-0.221733	0	0	-0.1305	-0.073604	-0.19261	0.0206675	-0.375412	0	0	-0.273663	0.0952167	0.0377219	0.147224	-0.477171	0.866959	0.679443	0.586852	0	0	0.152913	-0.26207	0.670676	0.492147	0.956531	0	0
10.17	1.09826	1.53038	0.436979	0.739005	-0.211355	1.03581	0.0612851	-0.010369	-0.0306428	0.278179	-0.219674	0	0	-0.126225	-0.0737773	-0.191871	0.023955	-0.37342	0	0	-0.27139	0.0940039	0.0381807	0.146497	-0.476822	0.868271	0.678304	0.586771	0	0	0.153402	-0.263396	0.675512	0.491499	0.951904	0	0
10.18	1.03955	1.52973	0.495324	0.739307	-0.211126	1.03554	0.0674718	-0.0104802	-0.0275764	0.28513	-0.217406	0	0	-0.122084	-0.0737897	-0.191668	0.0276725	-0.371185	0	0	-0.269775	0.0925871	0.0389548	0.146245	-0.476759	0.870195	0.677597	0.587161	0	0	0.153999	-0.264887	0.680197	0.491204	0.947963	0	0
10.19	0.995965	1.52928	0.538684	0.739601	-0.210976	1.03531	0.0737522	-0.0107798	-0.0247843	0.293506	-0.214966	0	0	-0.118272	-0.0738847	-0.191346	0.0319487	-0.368666	0	0	-0.269161	0.0912634	0.0394973	0.146423	-0.476976	0.872316	0.677384	0.587708	0	0	0.154759	-0.266396	0.684398	0.491139	0.944119	0	0
10.2	0.96419	1.52918	0.570458	0.739862	-0.210893	1.03509	0.0802412	-0.0114954	-0.0224004	0.303463	-0.212328	0	0	-0.114719	-0.0739834	-0.190717	0.0367216	-0.365899	0	0	-0.269412	0.0900193	0.0396912	0.146991	-0.477527	0.874721	0.677662	0.588457	0	0	0.155795	-0.267927	0.68857	0.490946	0.941092	0	0
10.21	0.93363	1.5293	0.600989	0.740099	-0.210888	1.03484	0.0863857	-0.0120797	-0.0191347	0.313076	-0.209577	0	0	-0.111107	-0.0739243	-0.189756	0.0417522	-0.36298	0	0	-0.269992	0.0886255	0.0396628	0.147703	-0.478355	0.876548	0.678498	0.589028	0	0	0.156894	-0.269463	0.692408	0.490636	0.938588	0	0
10.22	0.900847	1.52964	0.633476	0.740364	-0.210961	1.03454	0.0923035	-0.0125474	-0.0149576	0.322139	-0.206621	0	0	-0.107442	-0.0736526	-0.188556	0.0471004	-0.359895	0	0	-0.271072	0.0868685	0.0397692	0.148616	-0.479559	0.878066	0.680156	0.589386	0	0	0.157944	-0.270971	0.695486	0.490849	0.935017	0	0
10.23	0.881933	1.5304	0.652008	0.740631	-0.211093	1.0343	0.0977788	-0.0132813	-0.0116299	0.331866	-0.203496	0	0	-0.104496	-0.0734116	-0.187193	0.0527662	-0.356603	0	0	-0.273425	0.0850894	0.0399196	0.150002	-0.48118	0.879903	0.682468	0.589607	0	0	0.159348	-0.272598	0.698834	0.491336	0.930858	0	0
10.24	0.923448	1.53241	0.609493	0.740885	-0.21113	1.03432	0.0996124	-0.0138482	-0.0097259	0.340573	-0.20048	0	0	-0.104969	-0.0733499	-0.188202	0.0574773	-0.353585	0	0	-0.27884	0.083717	0.0408161	0.151884	-0.483463	0.882198	0.6854	0.589537	0	0	0.161244	-0.274087	0.702894	0.491649	0.926839	0	0
10.25	0.841996	1.53163	0.69131	0.741225	-0.211368	1.03388	0.107563	-0.0146805	-0.00710915	0.349554	-0.197346	0	0	-0.0981328	-0.0729122	-0.184558	0.0641048	-0.350074	0	0	-0.279069	0.0814471	0.0403083	0.153233	-0.484416	0.883622	0.687245	0.589536	0	0	0.162912	-0.276489	0.707277	0.491721	0.923366	0	0
10.26	0.752075	1.53	0.780829	0.741673	-0.211596	1.03335	0.116645	-0.0151442	-0.0038448	0.358621	-0.193969	0	0	-0.0903037	-0.0726427	-0.182154	0.071687	-0.345465	0	0	-0.278419	0.0789819	0.0403709	0.154487	-0.485048	0.884804	0.688541	0.589745	0	0	0.164527	-0.278941	0.712087	0.491291	0.92026	0	0
10.27	0.68161	1.52833	0.85082	0.7421	-0.211926	1.0329	0.125128	-0.0156741	-0.00127035	0.36709	-0.19143	0	0	-0.0828638	-0.072548	-0.179945	0.0791658	-0.341217	0	0	-0.278978	0.0767399	0.0407204	0.156061	-0.486136	0.885669	0.690392	0.589278	0	0	0.167113	-0.280404	0.716635	0.490525	0.917547	0	0
10.28	0.637716	1.52722	0.894299	0.742487	-0.212347	1.03257	0.132059	-0.0161183	7.53995e-05	0.374651	-0.189813	0	0	-0.0767229	-0.0726615	-0.177877	0.086163	-0.337856	0	0	-0.281545	0.0748307	0.0410366	0.158358	-0.487699	0.886704	0.69288	0.588568	0	0	0.170042	-0.281621	0.720005	0.489816	0.915193	0	0
10.29	0.538013	1.52273	0.9934	0.742958	-0.212982	1.03184	0.144877	-0.0163274	0.00275149	0.38563	-0.182041	0	0	-0.0638323	-0.0728077	-0.176018	0.098706	-0.326733	0	0	-0.279775	0.0723237	0.0423895	0.159559	-0.489278	0.887022	0.695456	0.585134	0	0	0.174216	-0.283046	0.728085	0.487562	0.912511	0	0
